<?xml version="1.0" encoding="UTF-8"?>
<svg id="Layer_1" xmlns="http://www.w3.org/2000/svg" version="1.1" viewBox="0 0 160 160">
  <!-- Generator: Adobe Illustrator 30.1.0, SVG Export Plug-In . SVG Version: 2.1.1 Build 136)  -->
  <defs>
    <style>
      .st0 {
        fill: #fff;
      }
    </style>
  </defs>
  <path class="st0" d="M159.76,160H0V0h160v160h-.24ZM86.69,56.21l-1.26-.06c-.06,0-.2-.1-.17-.14.32-.34,1.01-.17,1.64-.2l3.25-5.76c.59-1.05.09-2.25-.95-2.73-.86-.4-1.77-.3-2.64,0s-1.08,1.11-1.59,1.78c-5.5,7.1-19.57,23.93-28.23,25.8-1.03.22-1.92,0-2.63-.73-2.1-2.19-2.95-5.15-2.38-8.15.78-4.15,3.21-7.5,5.91-10.61.99-1.13,2.02-2.14,3.14-3.15,2.96-2.68,6.11-4.99,9.54-7.05,1.66-1,4.64-2.79,6.58-2.36.14.5.21.98.18,1.48-.07,1.18.28,2.31,1.17,3.09.82.72,1.87.94,2.94.59,1.47-.49,2.47-1.88,2.61-3.43.08-.89.09-1.78-.16-2.64-.5-1.73-1.79-3.02-3.42-3.73-5.37-2.34-12.11,1.16-16.45,4.38-4.82,3.57-8.91,8-12.07,13.09-1.35,2.18-2.43,4.42-3.17,6.85-1.42,4.62-.53,9.18,2.84,12.66,1.17,1.2,2.54,1.97,4.3,1.92.94-.03,1.87-.15,2.76-.5,1.42-.57,2.72-1.27,4-2.14,4.23-2.87,9.98-8.62,13.18-12.6l7.88-9.78-1.17,2.64c-4.63,10-9.4,19.91-13.55,30.14l-5.26,12.97c-1.79,4.42-3.37,8.84-4.46,13.47l-1.07,4.58c-.52,2.23.62,4.42,2.82,5.17,1.47.5,3.07.4,4.51-.28,1.29-.61,2.48-1.93,2.48-3.44,0-2.41-.08-4.7.17-7.14.36-3.48.78-6.88,1.56-10.29l.76-3.32c.52-2.27,1.2-4.39,1.88-6.63,3.66-12.02,8.49-22.75,14.54-33.71ZM95.1,57.96l-.76,1.38c-.07.13-.1.43-.08.58,1.39.39,2.57-.65,3.63-1.54-.45-.76-1.82,1.18-2.88,1.23l.96-1.93c0-.13-.14-.35-.25-.36-.1,0-.44-.06-.53,0l-1.45.93.91-1.76h15.59c.74.01,1.41.29,2.14-.01.02-.05.07-.17.02-.21-.03-.03-.18-.08-.29-.08h-17.25s3.06-5.95,3.06-5.95c.08-.15-.48-.2-.56-.06l-3.26,5.93c-.28.08-.64.08-.88.03.28-.56.49-.98.69-1.54-.23-.08-.56-.07-.65.07l-.89,1.51h-5.01c-.14,0-.3.12-.35.29l5.17.04-6.57,11.91c.31.35.78.12,1.09-.23.21-.24.28-.46.19-.73l6.02-10.89c.26-.1.63-.09.93-.03l-1.83,3.38c.28.07.64.12.77.01l1.66-1.45c.23-.2.42-.36.64-.52Z"/>
  <path d="M86.69,56.21c-6.04,10.96-10.87,21.69-14.54,33.71-.68,2.24-1.36,4.36-1.88,6.63l-.76,3.32c-.78,3.4-1.2,6.8-1.56,10.29-.25,2.44-.18,4.73-.17,7.14,0,1.51-1.19,2.83-2.48,3.44-1.44.69-3.03.78-4.51.28-2.2-.74-3.34-2.93-2.82-5.17l1.07-4.58c1.08-4.62,2.67-9.05,4.46-13.47l5.26-12.97c4.15-10.23,8.91-20.14,13.55-30.14l1.17-2.64-7.88,9.78c-3.2,3.97-8.95,9.72-13.18,12.6-1.28.87-2.58,1.57-4,2.14-.9.36-1.82.48-2.76.5-1.75.05-3.13-.71-4.3-1.92-3.37-3.48-4.26-8.04-2.84-12.66.75-2.43,1.82-4.67,3.17-6.85,3.16-5.09,7.26-9.53,12.07-13.09,4.34-3.21,11.08-6.72,16.45-4.38,1.63.71,2.93,2,3.42,3.73.25.86.24,1.76.16,2.64-.15,1.56-1.14,2.94-2.61,3.43-1.06.35-2.12.13-2.94-.59-.88-.77-1.24-1.9-1.17-3.09.03-.5-.04-.98-.18-1.48-1.94-.42-4.93,1.37-6.58,2.36-3.43,2.06-6.58,4.37-9.54,7.05-1.12,1.02-2.16,2.02-3.14,3.15-2.7,3.11-5.13,6.46-5.91,10.61-.57,3,.28,5.96,2.38,8.15.7.73,1.59.95,2.63.73,8.66-1.87,22.73-18.7,28.23-25.8.52-.67.73-1.48,1.59-1.78s1.79-.4,2.64,0c1.04.49,1.54,1.68.95,2.73l-3.25,5.76c-.63.03-1.32-.14-1.64.2-.03.03.11.13.17.14l1.26.06Z"/>
  <path d="M95.1,57.96c-.22.17-.41.32-.64.52l-1.66,1.45c-.13.1-.49.06-.77-.01l1.83-3.38c-.3-.06-.67-.07-.93.03l-6.02,10.89c.08.28.02.5-.19.73-.31.35-.78.58-1.09.23l6.57-11.91-5.17-.04c.05-.17.21-.29.35-.29h5.01s.89-1.51.89-1.51c.08-.14.41-.16.65-.07-.2.56-.4.98-.69,1.54.23.06.6.06.88-.03l3.26-5.93c.08-.15.64-.09.56.06l-3.06,5.94h17.25c.1,0,.26.06.29.09.04.04,0,.16-.02.21-.73.31-1.4.02-2.14.02h-15.59s-.91,1.74-.91,1.74l1.45-.93c.08-.05.43,0,.53,0,.12.01.25.23.25.36l-.96,1.93c1.06-.05,2.43-1.99,2.88-1.23-1.06.89-2.25,1.93-3.63,1.54-.02-.15,0-.45.08-.58l.76-1.38Z"/>
</svg>